<svg xmlns="http://www.w3.org/2000/svg" viewBox="0 0 512 512">
  <defs>
    <linearGradient id="g" x1="0" y1="0" x2="1" y2="1">
      <stop offset="0" stop-color="#7b5cff"/>
      <stop offset=".55" stop-color="#4f7cff"/>
      <stop offset="1" stop-color="#10c2e0"/>
    </linearGradient>
    <linearGradient id="p" x1="0" y1="0" x2="0" y2="1">
      <stop offset="0" stop-color="#ffffff"/>
      <stop offset="1" stop-color="#e6e9ff"/>
    </linearGradient>
  </defs>
  <rect width="512" height="512" rx="116" fill="url(#g)"/>
  <circle cx="400" cy="96" r="120" fill="#fff" opacity=".10"/>
  <!-- كتاب مفتوح -->
  <path d="M256 170c-38-26-88-36-140-32v196c52-4 102 6 140 32z" fill="url(#p)"/>
  <path d="M256 170c38-26 88-36 140-32v196c-52-4-102 6-140 32z" fill="#fff" opacity=".86"/>
  <path d="M256 170v196" stroke="#4f46e5" stroke-width="8" stroke-linecap="round" opacity=".35"/>
  <!-- سهم نمو -->
  <path d="M300 300l34-40 26 22 44-56" fill="none" stroke="#10c2e0" stroke-width="18" stroke-linecap="round" stroke-linejoin="round"/>
  <path d="M378 226h28v28" fill="none" stroke="#10c2e0" stroke-width="18" stroke-linecap="round" stroke-linejoin="round"/>
  <!-- سطور -->
  <path d="M150 200h70M150 236h70M150 272h52" stroke="#7b5cff" stroke-width="14" stroke-linecap="round" opacity=".55"/>
</svg>
